<svg version="1.2" xmlns="http://www.w3.org/2000/svg" viewBox="0 0 800 800" width="800" height="800">
	<title>New Project</title>
	<style>
		.s0 { fill: #ffffff } 
	</style>
	<path id=":)" class="s0" aria-label=":)"  d="m229.1 578.5q0-17.6 10.2-29.3 10.6-11.7 31.5-11.7 20.9 0 31.5 11.7 11 11.7 11 29.3 0 16.8-11 28.2-10.6 11.3-31.5 11.3-20.9 0-31.5-11.3-10.2-11.4-10.2-28.2zm0.3-323.4q0-17.6 10.3-29.3 10.6-11.7 31.5-11.7 20.9 0 31.5 11.7 11 11.7 11 29.3 0 16.9-11 28.2-10.6 11.4-31.5 11.4-20.9 0-31.5-11.4-10.3-11.3-10.3-28.2zm339.9 146.1q0 81.7-21.6 156.8-21.3 74.7-65.6 138-43.9 63.4-92.3 90.1l-14.2-41.4q56.4-43.2 90.4-134 34.4-91.2 35.2-202.1v-11.8q0-76.9-16.1-142.8-16.2-66.3-45.1-118.6-28.6-52.4-64.4-81.7l14.2-41.4q48.4 26.7 92 89.4 43.9 62.6 65.5 138 22 75.5 22 161.5z"/>
</svg>